<svg width="42" height="42" viewBox="0 0 42 42" fill="none" xmlns="http://www.w3.org/2000/svg">
<circle cx="21" cy="21" r="20" fill="#0B0414" stroke="url(#paint0_linear_1561_185)" stroke-width="2"/>
<path d="M18.1808 27.1898C18.1808 28.8677 16.8071 30.2278 15.1126 30.2278C13.4181 30.2278 12.0444 28.8677 12.0444 27.1898C12.0444 25.5121 13.4181 24.1521 15.1126 24.1521C16.8071 24.1521 18.1808 25.5121 18.1808 27.1898Z" fill="url(#paint1_linear_1561_185)"/>
<path d="M11.9155 16.7413C10.9995 14.474 12.6683 12 15.1136 12C17.5589 12 19.2278 14.474 18.3118 16.7413L16.5194 21.178C16.2879 21.751 15.7317 22.1262 15.1136 22.1262C14.4955 22.1262 13.9393 21.751 13.7078 21.178L11.9155 16.7413Z" fill="url(#paint2_linear_1561_185)"/>
<path d="M30.5862 25.4862C31.5022 27.7535 29.8333 30.2276 27.388 30.2276C24.9427 30.2276 23.2739 27.7535 24.1898 25.4862L25.9822 21.0496C26.2137 20.4765 26.7699 20.1013 27.388 20.1013C28.006 20.1013 28.5622 20.4765 28.7938 21.0496L30.5862 25.4862Z" fill="url(#paint3_linear_1561_185)"/>
<path d="M30.4548 15.0379C30.4548 16.7156 29.081 18.0757 27.3866 18.0757C25.692 18.0757 24.3184 16.7156 24.3184 15.0379C24.3184 13.3601 25.692 12 27.3866 12C29.081 12 30.4548 13.3601 30.4548 15.0379Z" fill="url(#paint4_linear_1561_185)"/>
<path d="M17.3811 27.2079C17.3811 28.395 16.392 29.3572 15.172 29.3572C13.9519 29.3572 12.9629 28.395 12.9629 27.2079C12.9629 26.0208 13.9519 25.0586 15.172 25.0586C16.392 25.0586 17.3811 26.0208 17.3811 27.2079Z" fill="#0B0414"/>
<path d="M12.7634 16.447C12.123 14.7941 13.3426 13.0138 15.1152 13.0138C16.8877 13.0138 18.1073 14.7941 17.467 16.447L15.867 20.5771C15.7467 20.8875 15.448 21.0921 15.1152 21.0921C14.7823 21.0921 14.4836 20.8875 14.3634 20.5771L12.7634 16.447Z" fill="#0B0414"/>
<path d="M25.2031 15.0417C25.2031 13.8546 26.1922 12.8923 27.4123 12.8923C28.6324 12.8923 29.6214 13.8546 29.6214 15.0417C29.6214 16.2287 28.6324 17.191 27.4123 17.191C26.1922 17.191 25.2031 16.2287 25.2031 15.0417Z" fill="#0B0414"/>
<path d="M29.8229 25.8024C30.4633 27.4553 29.2437 29.2356 27.4711 29.2356C25.6986 29.2356 24.479 27.4553 25.1193 25.8024L26.7193 21.6723C26.8395 21.3619 27.1382 21.1573 27.4711 21.1573C27.804 21.1573 28.1026 21.3619 28.2229 21.6723L29.8229 25.8024Z" fill="#0B0414"/>
<defs>
<linearGradient id="paint0_linear_1561_185" x1="-0.103287" y1="-0.245746" x2="36.0857" y2="41.8417" gradientUnits="userSpaceOnUse">
<stop stop-color="#C7A3FF"/>
<stop offset="1" stop-color="#B5D7FF"/>
</linearGradient>
<linearGradient id="paint1_linear_1561_185" x1="15.1126" y1="24.1521" x2="15.1126" y2="30.2278" gradientUnits="userSpaceOnUse">
<stop stop-color="#D0B4FB"/>
<stop offset="1" stop-color="#CDE3FD"/>
</linearGradient>
<linearGradient id="paint2_linear_1561_185" x1="15.1136" y1="12" x2="15.1136" y2="22.1262" gradientUnits="userSpaceOnUse">
<stop stop-color="#D0B4FB"/>
<stop offset="1" stop-color="#CDE3FD"/>
</linearGradient>
<linearGradient id="paint3_linear_1561_185" x1="27.3881" y1="20.1013" x2="27.3881" y2="30.2276" gradientUnits="userSpaceOnUse">
<stop stop-color="#D0B4FB"/>
<stop offset="1" stop-color="#CDE3FD"/>
</linearGradient>
<linearGradient id="paint4_linear_1561_185" x1="27.3866" y1="12" x2="27.3866" y2="18.0757" gradientUnits="userSpaceOnUse">
<stop stop-color="#D0B4FB"/>
<stop offset="1" stop-color="#CDE3FD"/>
</linearGradient>
</defs>
</svg>
