<svg width="345" height="327" viewBox="0 0 345 327" fill="none" xmlns="http://www.w3.org/2000/svg">
<rect x="0.150391" y="0.149902" width="344.85" height="326.7" rx="42.9092" fill="url(#paint0_linear_649_6716)"/>
<rect x="18.2998" y="18.2998" width="308.55" height="290.4" rx="27.225" fill="#0B0414"/>
<path d="M144.877 222.652C144.877 237.879 132.411 250.222 117.033 250.222C101.656 250.222 89.1895 237.879 89.1895 222.652C89.1895 207.427 101.656 195.085 117.033 195.085C132.411 195.085 144.877 207.427 144.877 222.652Z" fill="url(#paint1_linear_649_6716)"/>
<path d="M88.0146 127.83C79.7022 107.255 94.8467 84.8027 117.038 84.8027V84.8027C139.229 84.8027 154.374 107.255 146.061 127.83L129.796 168.093C127.695 173.293 122.647 176.698 117.038 176.698V176.698C111.429 176.698 106.381 173.293 104.28 168.093L88.0146 127.83Z" fill="url(#paint2_linear_649_6716)"/>
<path d="M257.452 207.192C265.764 227.768 250.62 250.22 228.428 250.22V250.22C206.237 250.22 191.093 227.768 199.405 207.192L215.671 166.93C217.772 161.729 222.819 158.324 228.428 158.324V158.324C234.037 158.324 239.085 161.729 241.186 166.929L257.452 207.192Z" fill="url(#paint3_linear_649_6716)"/>
<path d="M256.259 112.371C256.259 127.597 243.792 139.94 228.415 139.94C213.037 139.94 200.571 127.597 200.571 112.371C200.571 97.1457 213.037 84.8027 228.415 84.8027C243.792 84.8027 256.259 97.1457 256.259 112.371Z" fill="url(#paint4_linear_649_6716)"/>
<path d="M137.614 222.814C137.614 233.587 128.639 242.319 117.567 242.319C106.495 242.319 97.5195 233.587 97.5195 222.814C97.5195 212.041 106.495 203.309 117.567 203.309C128.639 203.309 137.614 212.041 137.614 222.814Z" fill="#0B0414"/>
<path d="M95.7115 125.158C89.9006 110.158 100.968 94.0015 117.054 94.0015V94.0015C133.14 94.0015 144.208 110.158 138.397 125.158L123.877 162.639C122.785 165.456 120.075 167.312 117.054 167.312V167.312C114.033 167.312 111.323 165.456 110.232 162.639L95.7115 125.158Z" fill="#0B0414"/>
<path d="M208.6 112.408C208.6 101.636 217.575 92.9028 228.648 92.9028C239.72 92.9028 248.696 101.636 248.696 112.408C248.696 123.181 239.72 131.913 228.648 131.913C217.575 131.913 208.6 123.181 208.6 112.408Z" fill="#0B0414"/>
<path d="M250.523 210.058C256.334 225.058 245.266 241.215 229.18 241.215V241.215C213.094 241.215 202.027 225.058 207.837 210.058L222.357 172.578C223.448 169.761 226.159 167.904 229.18 167.904V167.904C232.201 167.904 234.911 169.761 236.002 172.578L250.523 210.058Z" fill="#0B0414"/>
<defs>
<linearGradient id="paint0_linear_649_6716" x1="172.575" y1="0.149902" x2="172.575" y2="326.85" gradientUnits="userSpaceOnUse">
<stop stop-color="#D0B4FB"/>
<stop offset="1" stop-color="#CDE3FD"/>
</linearGradient>
<linearGradient id="paint1_linear_649_6716" x1="117.033" y1="195.085" x2="117.033" y2="250.222" gradientUnits="userSpaceOnUse">
<stop stop-color="#D0B4FB"/>
<stop offset="1" stop-color="#CDE3FD"/>
</linearGradient>
<linearGradient id="paint2_linear_649_6716" x1="117.038" y1="84.8027" x2="117.038" y2="176.698" gradientUnits="userSpaceOnUse">
<stop stop-color="#D0B4FB"/>
<stop offset="1" stop-color="#CDE3FD"/>
</linearGradient>
<linearGradient id="paint3_linear_649_6716" x1="228.429" y1="158.324" x2="228.429" y2="250.22" gradientUnits="userSpaceOnUse">
<stop stop-color="#D0B4FB"/>
<stop offset="1" stop-color="#CDE3FD"/>
</linearGradient>
<linearGradient id="paint4_linear_649_6716" x1="228.415" y1="84.8027" x2="228.415" y2="139.94" gradientUnits="userSpaceOnUse">
<stop stop-color="#D0B4FB"/>
<stop offset="1" stop-color="#CDE3FD"/>
</linearGradient>
</defs>
</svg>
