<svg width="37" height="36" viewBox="0 0 37 36" fill="none" xmlns="http://www.w3.org/2000/svg">
<rect width="37" height="35.8438" rx="5" fill="white"/>
<path d="M32.2815 3.04956H4.71849C3.85218 3.04956 3.1499 3.73885 3.1499 4.58914V31.2546C3.1499 32.1049 3.85218 32.7942 4.71849 32.7942H32.2815C33.1478 32.7942 33.8501 32.1049 33.8501 31.2546V4.58914C33.8501 3.73885 33.1478 3.04956 32.2815 3.04956Z" fill="#272A2C"/>
<path d="M15.7459 23.9813C15.7459 25.5409 14.5055 26.8051 12.9755 26.8051C11.4454 26.8051 10.2051 25.5409 10.2051 23.9813C10.2051 22.4218 11.4454 21.1577 12.9755 21.1577C14.5055 21.1577 15.7459 22.4218 15.7459 23.9813Z" fill="white"/>
<path d="M8.35791 9.86255H17.5926L13.8987 19.2751H12.0518L8.35791 9.86255Z" fill="white"/>
<path d="M28.6741 26.8051H19.4395L23.1333 17.3926H24.9802L28.6741 26.8051Z" fill="white"/>
<path d="M26.8275 12.6863C26.8275 14.2458 25.587 15.5101 24.057 15.5101C22.5269 15.5101 21.2866 14.2458 21.2866 12.6863C21.2866 11.1268 22.5269 9.86255 24.057 9.86255C25.587 9.86255 26.8275 11.1268 26.8275 12.6863Z" fill="white"/>
<path d="M15.0236 23.9971C15.0236 25.1005 14.1305 25.9949 13.0289 25.9949C11.9272 25.9949 11.0342 25.1005 11.0342 23.9971C11.0342 22.8936 11.9272 21.9993 13.0289 21.9993C14.1305 21.9993 15.0236 22.8936 15.0236 23.9971Z" fill="#272A2C"/>
<path d="M9.65039 10.8038H16.2994L13.4736 18.3128H12.4762L9.65039 10.8038Z" fill="#272A2C"/>
<path d="M22.082 12.6888C22.082 11.5854 22.9751 10.6909 24.0768 10.6909C25.1785 10.6909 26.0715 11.5854 26.0715 12.6888C26.0715 13.7921 25.1785 14.6866 24.0768 14.6866C22.9751 14.6866 22.082 13.7921 22.082 12.6888Z" fill="#272A2C"/>
<path d="M27.4552 25.8819H20.8062L23.6319 18.373H24.6293L27.4552 25.8819Z" fill="#272A2C"/>
</svg>
