<svg width="25" height="21" viewBox="0 0 25 20" fill="none" xmlns="http://www.w3.org/2000/svg">
    <path d="M1 2.76C1 2.76 2.32 1 5.4 1C8.48 1 9.8 2.76 9.8 2.76V15.08C9.8 15.08 8.48 14.2 5.4 14.2C2.32 14.2 1 15.08 1 15.08V2.76Z" stroke="#939495" stroke-width="2" stroke-linecap="round" stroke-linejoin="round"/>
    <path d="M9.7998 2.76C9.7998 2.76 11.1198 1 14.1998 1C17.2798 1 18.5998 2.76 18.5998 2.76V15.08C18.5998 15.08 17.2798 14.2 14.1998 14.2C11.1198 14.2 9.7998 15.08 9.7998 15.08V2.76Z" stroke="#939495" stroke-width="2" stroke-linecap="round" stroke-linejoin="round"/>
    <circle cx="18.8198" cy="15.3" r="5" fill="white"/>
    <path fill-rule="evenodd" clip-rule="evenodd" d="M18.1598 9.79999C15.4868 9.79999 13.3198 11.967 13.3198 14.64C13.3198 17.313 15.4868 19.48 18.1598 19.48C20.8328 19.48 22.9998 17.313 22.9998 14.64C22.9998 11.967 20.8328 9.79999 18.1598 9.79999ZM18.5998 16.4C18.5998 16.5167 18.5535 16.6286 18.471 16.7111C18.3884 16.7936 18.2765 16.84 18.1598 16.84C18.0431 16.84 17.9312 16.7936 17.8487 16.7111C17.7662 16.6286 17.7198 16.5167 17.7198 16.4V15.08H16.3998C16.2831 15.08 16.1712 15.0336 16.0887 14.9511C16.0062 14.8686 15.9598 14.7567 15.9598 14.64C15.9598 14.5233 16.0062 14.4114 16.0887 14.3289C16.1712 14.2463 16.2831 14.2 16.3998 14.2H17.7198V12.88C17.7198 12.7633 17.7662 12.6514 17.8487 12.5689C17.9312 12.4863 18.0431 12.44 18.1598 12.44C18.2765 12.44 18.3884 12.4863 18.471 12.5689C18.5535 12.6514 18.5998 12.7633 18.5998 12.88V14.2H19.9198C20.0365 14.2 20.1484 14.2463 20.231 14.3289C20.3135 14.4114 20.3598 14.5233 20.3598 14.64C20.3598 14.7567 20.3135 14.8686 20.231 14.9511C20.1484 15.0336 20.0365 15.08 19.9198 15.08H18.5998V16.4Z" fill="#939495"/>
</svg>
