<svg width="163" height="23" viewBox="0 0 163 23" fill="none" xmlns="http://www.w3.org/2000/svg">
<path d="M0 0.872477C0 0.390621 0.390621 0 0.872477 0H22.1275C22.6094 0 23 0.390621 23 0.872477V22.1275C23 22.6094 22.6094 23 22.1275 23H0.872477C0.390621 23 0 22.6094 0 22.1275V0.872477Z" fill="white"/>
<path d="M20.5607 1.16162H2.20544C1.62853 1.16162 1.16086 1.63539 1.16086 2.21982V20.5479C1.16086 21.1323 1.62853 21.6061 2.20544 21.6061H20.5607C21.1376 21.6061 21.6053 21.1323 21.6053 20.5479V2.21982C21.6053 1.63539 21.1376 1.16162 20.5607 1.16162Z" fill="black"/>
<path d="M9.54897 15.5487C9.54897 16.6207 8.72302 17.4896 7.7041 17.4896C6.68518 17.4896 5.85916 16.6207 5.85916 15.5487C5.85916 14.4769 6.68518 13.6079 7.7041 13.6079C8.72302 13.6079 9.54897 14.4769 9.54897 15.5487Z" fill="white"/>
<path d="M4.62988 5.84473H10.7796L8.31972 12.3142H7.08981L4.62988 5.84473Z" fill="white"/>
<path d="M18.1586 17.4896H12.0088L14.4687 11.02H15.6987L18.1586 17.4896Z" fill="white"/>
<path d="M16.9288 7.78557C16.9288 8.8575 16.1028 9.7264 15.0839 9.7264C14.065 9.7264 13.239 8.8575 13.239 7.78557C13.239 6.71368 14.065 5.84473 15.0839 5.84473C16.1028 5.84473 16.9288 6.71368 16.9288 7.78557Z" fill="white"/>
<path d="M9.06801 15.5597C9.06801 16.318 8.47329 16.9328 7.73963 16.9328C7.00603 16.9328 6.41132 16.318 6.41132 15.5597C6.41132 14.8013 7.00603 14.1865 7.73963 14.1865C8.47329 14.1865 9.06801 14.8013 9.06801 15.5597Z" fill="black"/>
<path d="M5.49042 6.49121H9.9182L8.03638 11.6523H7.37226L5.49042 6.49121Z" fill="black"/>
<path d="M13.7687 7.78722C13.7687 7.02886 14.3634 6.41406 15.0971 6.41406C15.8307 6.41406 16.4254 7.02886 16.4254 7.78722C16.4254 8.54564 15.8307 9.16044 15.0971 9.16044C14.3634 9.16044 13.7687 8.54564 13.7687 7.78722Z" fill="black"/>
<path d="M17.3467 16.855H12.9189L14.8007 11.6938H15.4649L17.3467 16.855Z" fill="black"/>
<path d="M44.7532 7.14974L40.3151 17.6312H38.4526L34 7.14974H36.0517L39.4421 15.2355L42.8616 7.14974H44.7532Z" fill="black"/>
<path d="M45.828 7.14974H47.7197V17.6312H45.828V7.14974Z" fill="black"/>
<path d="M59.7163 7.14974L55.2782 17.6312H53.4157L48.9631 7.14974H51.0148L54.4052 15.2355L57.8247 7.14974H59.7163Z" fill="black"/>
<path d="M67.0705 15.2055H61.9776L60.9736 17.6312H59.0238L63.6074 7.14974H65.4699L70.068 17.6312H68.0891L67.0705 15.2055ZM66.4448 13.6782L64.5241 9.0963L62.6179 13.6782H66.4448Z" fill="black"/>
<path d="M77.4511 8.79683H74.0752V7.14974H82.7186V8.79683H79.3427V17.6312H77.4511V8.79683Z" fill="black"/>
<path d="M90.8026 17.6312L88.7218 14.5617C88.6345 14.5716 88.5035 14.5766 88.3289 14.5766H86.0298V17.6312H84.1382V7.14974H88.3289C89.2117 7.14974 89.978 7.29947 90.628 7.59894C91.2876 7.89841 91.792 8.32766 92.1413 8.88667C92.4905 9.44569 92.6651 10.1095 92.6651 10.8782C92.6651 11.6668 92.4759 12.3456 92.0976 12.9146C91.729 13.4836 91.1955 13.9078 90.497 14.1873L92.8397 17.6312H90.8026ZM90.7589 10.8782C90.7589 10.2093 90.5455 9.69524 90.1187 9.33588C89.6918 8.97651 89.0661 8.79683 88.2416 8.79683H86.0298V12.9745H88.2416C89.0661 12.9745 89.6918 12.7948 90.1187 12.4354C90.5455 12.0661 90.7589 11.547 90.7589 10.8782Z" fill="black"/>
<path d="M101.388 15.2055H96.2948L95.2908 17.6312H93.3409L97.9245 7.14974H99.787L104.385 17.6312H102.406L101.388 15.2055ZM100.762 13.6782L98.8412 9.0963L96.935 13.6782H100.762Z" fill="black"/>
<path d="M114.731 7.14974V17.6312H113.174L107.558 10.5338V17.6312H105.681V7.14974H107.238L112.854 14.2472V7.14974H114.731Z" fill="black"/>
<path d="M120.618 17.781C119.832 17.781 119.071 17.6662 118.334 17.4366C117.606 17.207 117.029 16.9025 116.602 16.5232L117.257 15.0109C117.674 15.3503 118.183 15.6298 118.785 15.8494C119.396 16.059 120.007 16.1638 120.618 16.1638C121.375 16.1638 121.938 16.0391 122.306 15.7895C122.684 15.5399 122.874 15.2105 122.874 14.8012C122.874 14.5018 122.767 14.2572 122.554 14.0675C122.35 13.8679 122.088 13.7132 121.768 13.6033C121.448 13.4935 121.011 13.3688 120.458 13.229C119.682 13.0393 119.052 12.8497 118.567 12.66C118.091 12.4703 117.679 12.1759 117.33 11.7766C116.99 11.3673 116.82 10.8183 116.82 10.1295C116.82 9.5505 116.971 9.02642 117.271 8.55725C117.582 8.0781 118.043 7.69877 118.654 7.41926C119.275 7.13975 120.031 7 120.924 7C121.545 7 122.156 7.07986 122.757 7.23958C123.359 7.3993 123.878 7.62889 124.314 7.92836L123.718 9.44069C123.271 9.17117 122.806 8.96653 122.321 8.82678C121.836 8.68702 121.365 8.61715 120.909 8.61715C120.162 8.61715 119.604 8.74692 119.236 9.00646C118.877 9.266 118.697 9.61039 118.697 10.0396C118.697 10.3391 118.799 10.5837 119.003 10.7733C119.216 10.963 119.483 11.1127 119.803 11.2225C120.123 11.3324 120.56 11.4571 121.113 11.5969C121.87 11.7766 122.49 11.9662 122.975 12.1659C123.461 12.3556 123.873 12.65 124.212 13.0493C124.562 13.4486 124.736 13.9877 124.736 14.6665C124.736 15.2455 124.581 15.7695 124.271 16.2387C123.97 16.7079 123.509 17.0822 122.888 17.3617C122.267 17.6412 121.511 17.781 120.618 17.781Z" fill="black"/>
<path d="M126.612 7.14974H128.504V15.9841H133.829V17.6312H126.612V7.14974Z" fill="black"/>
<path d="M142 15.2055H136.907L135.903 17.6312H133.953L138.537 7.14974H140.399L144.997 17.6312H143.018L142 15.2055ZM141.374 13.6782L139.453 9.0963L137.547 13.6782H141.374Z" fill="black"/>
<path d="M147.847 8.79683H144.472V7.14974H153.115V8.79683H149.739V17.6312H147.847V8.79683Z" fill="black"/>
<path d="M162.174 15.9991V17.6312H154.535V7.14974H161.97V8.78186H156.426V11.507H161.344V13.1092H156.426V15.9991H162.174Z" fill="black"/>
</svg>
