<svg width="35" height="34" viewBox="0 0 35 34" fill="none" xmlns="http://www.w3.org/2000/svg">
<rect x="1.28462" y="0.993264" width="32.4308" height="32.0135" rx="1.65701" fill="#272A2C" stroke="white" stroke-width="1.43077"/>
<path d="M14.5904 23.5216C14.5904 25.2001 13.2802 26.5607 11.6639 26.5607C10.0476 26.5607 8.7373 25.2001 8.7373 23.5216C8.7373 21.8431 10.0476 20.4825 11.6639 20.4825C13.2802 20.4825 14.5904 21.8431 14.5904 23.5216Z" fill="white"/>
<path d="M6.78625 8.32594H16.5415L12.6394 18.4564H10.6884L6.78625 8.32594Z" fill="white"/>
<path d="M28.2478 26.5607H18.4925L22.3946 16.4303H24.3457L28.2478 26.5607Z" fill="white"/>
<path d="M26.2967 11.3651C26.2967 13.0435 24.9865 14.4042 23.3702 14.4042C21.7539 14.4042 20.4436 13.0435 20.4436 11.3651C20.4436 9.68661 21.7539 8.32594 23.3702 8.32594C24.9865 8.32594 26.2967 9.68661 26.2967 11.3651Z" fill="white"/>
<path d="M13.8277 23.5386C13.8277 24.7261 12.8843 25.6888 11.7205 25.6888C10.5568 25.6888 9.61341 24.7261 9.61341 23.5386C9.61341 22.351 10.5568 21.3883 11.7205 21.3883C12.8843 21.3883 13.8277 22.351 13.8277 23.5386Z" fill="#272A2C"/>
<path d="M8.15186 9.339H15.1756L12.1905 17.4207H11.137L8.15186 9.339Z" fill="#272A2C"/>
<path d="M21.2841 11.3677C21.2841 10.1802 22.2275 9.21749 23.3913 9.21749C24.555 9.21749 25.4984 10.1802 25.4984 11.3677C25.4984 12.5553 24.555 13.5179 23.3913 13.5179C22.2275 13.5179 21.2841 12.5553 21.2841 11.3677Z" fill="#272A2C"/>
<path d="M26.96 25.5673H19.9362L22.9213 17.4856H23.9749L26.96 25.5673Z" fill="#272A2C"/>
</svg>
